<svg xmlns="http://www.w3.org/2000/svg" xmlns:xlink="http://www.w3.org/1999/xlink" width="692.346" height="690.98" viewBox="0 0 692.346 690.98">
  <defs>
    <clipPath id="clip-path">
      <rect id="Rectangle_4" data-name="Rectangle 4" width="692.346" height="690.98" fill="none" stroke="rgba(0,0,0,0.74)" stroke-width="1"/>
    </clipPath>
  </defs>
  <g id="Group_1" data-name="Group 1" opacity="0.5" clip-path="url(#clip-path)">
    <path id="Path_1" data-name="Path 1" d="M1.558,1.52q262.5,0,525,0,83.089.02,166.177,0,.049,82.932-.005,165.865.136,262.01.005,524.02H1.558q0-262.011.007-524.023C1.611,112.095,1.506,56.807,1.558,1.52Z" transform="translate(-0.96 -0.964)" fill="none" stroke="rgba(0,0,0,0.74)" stroke-miterlimit="10" stroke-width="3"/>
    <path id="Path_2" data-name="Path 2" d="M1.66,1561.134H148.933c21.37,0,42.4-.114,63.58-3.362,19.2-2.945,38.089-7.511,57.1-11.425,18.406-3.79,36.974-6.879,55.778-7.7,21.26-.93,42.717,1.945,63.7,5.048,45.7,6.76,91.15,17.441,137.565,17.441H692.832" transform="translate(-1.062 -985.673)" fill="none" stroke="rgba(0,0,0,0.74)" stroke-miterlimit="10" stroke-width="3"/>
    <path id="Path_3" data-name="Path 3" d="M1.649,1241.3c50.629-.223,101.125,3.917,151.724,4.9,21.273.412,42.266.32,63.23-3.74,18.478-3.578,36.417-9.318,54.57-14.191,17.781-4.773,35.828-8.526,54.268-9.349,21.11-.942,42.461,1.932,63.294,5.044,45.146,6.743,89.975,17.345,135.843,17.345H692.827" transform="translate(-1.055 -780.826)" fill="none" stroke="rgba(0,0,0,0.74)" stroke-miterlimit="10" stroke-width="3"/>
    <path id="Path_4" data-name="Path 4" d="M1.662,961.542c55.128.632,109.072,14.023,163.9,18.284,41.033,3.19,79.468-4.091,119.533-11.615,37.743-7.087,75.091-6.67,113.335-6.67H692.833" transform="translate(-1.064 -616.043)" fill="none" stroke="rgba(0,0,0,0.74)" stroke-miterlimit="10" stroke-width="3"/>
    <path id="Path_5" data-name="Path 5" d="M1.689,641.492c98.07-.413,195.747,8.859,293.722,1.67,32.67-2.4,65.52-2.482,98.094,1.229,34.745,3.959,69.028,10.19,104.156,9.5C562.879,652.6,627.6,642.383,692.843,641.5" transform="translate(-1.081 -410.979)" fill="none" stroke="rgba(0,0,0,0.74)" stroke-miterlimit="10" stroke-width="3"/>
    <path id="Path_6" data-name="Path 6" d="M1.7,321.414H293.99c33.348,0,66.7-.819,99.9,2.913,35.244,3.961,70.085,10.258,105.7,9.548,64.58-1.286,128.652-11.576,193.256-12.456" transform="translate(-1.089 -205.877)" fill="none" stroke="rgba(0,0,0,0.74)" stroke-miterlimit="10" stroke-width="3"/>
    <path id="Path_7" data-name="Path 7" d="M1553.16,1.562c-1.822,60.43-24.4,118.016-27.084,178.319-1.758,39.433,9.7,78.148,16.238,116.68,6.61,38.968,5.159,78.661,7.021,118.032,4.365,92.3,3.835,184.462,3.835,276.849" transform="translate(-976.595 -1.002)" fill="none" stroke="rgba(0,0,0,0.74)" stroke-miterlimit="10" stroke-width="3"/>
    <path id="Path_8" data-name="Path 8" d="M1233.432,1.562c-1.8,60.4-24.267,117.978-26.933,178.25-1.745,39.446,9.648,78.177,16.15,116.733,6.437,38.175,5.248,76.849,5.31,115.427.067,41.581-.216,83.2.582,124.772.989,51.591,5.134,103.088,4.905,154.706" transform="translate(-772.062 -1.002)" fill="none" stroke="rgba(0,0,0,0.74)" stroke-miterlimit="10" stroke-width="3"/>
    <path id="Path_9" data-name="Path 9" d="M927.271,1.55V293.641c0,37.2,1.2,73.872-6.682,110.446-3.476,16.125-7.631,32.106-10.065,48.439-3.125,20.965-3.136,42.025-1.571,63.128,4.354,58.73,17.644,116.776,18.318,175.78" transform="translate(-581.087 -0.994)" fill="none" stroke="rgba(0,0,0,0.74)" stroke-miterlimit="10" stroke-width="3"/>
    <path id="Path_10" data-name="Path 10" d="M632.62,1.55c2.754,57.959,38.156,108.252,42.248,165.863,1.615,22.729-3.23,46.237-7.695,68.422-4.628,23-10.232,45.79-14.676,68.825-7.465,38.7-5.913,77.932-13.069,116.645-3.237,17.51-7.087,34.914-9.4,52.583-2.727,20.873-2.733,41.836-2.329,62.847.99,51.591,5.135,103.088,4.906,154.706" transform="translate(-401.617 -0.994)" fill="none" stroke="rgba(0,0,0,0.74)" stroke-miterlimit="10" stroke-width="3"/>
    <path id="Path_11" data-name="Path 11" d="M321.675,1.55c2.781,57.985,38.359,108.229,42.484,165.863,1.628,22.734-3.252,46.26-7.738,68.445-4.654,23.011-10.286,45.814-14.754,68.863-7.652,39.47-6.722,79.443-11.466,119.259-4.805,40.333-8.54,79.783-8.54,120.456v147" transform="translate(-205.868 -0.994)" fill="none" stroke="rgba(0,0,0,0.74)" stroke-miterlimit="10" stroke-width="3"/>
  </g>
</svg>
